<?xml version="1.0" encoding="utf-8"?><svg xml:space="preserve" viewBox="0 0 100 100" y="0" x="0" xmlns="http://www.w3.org/2000/svg" id="圖層_1" version="1.1" width="47px" height="47px" xmlns:xlink="http://www.w3.org/1999/xlink" style="width:100%;height:100%;background-size:initial;background-repeat-y:initial;background-repeat-x:initial;background-position-y:initial;background-position-x:initial;background-origin:initial;background-color:initial;background-clip:initial;background-attachment:initial;animation-play-state:paused" ><g class="ldl-scale" style="transform-origin:50% 50%;transform:rotate(0deg) scale(0.8, 0.8);animation-play-state:paused" ><path fill="#333" d="M45.5 8.2l-29.4 17c-2.8 1.6-4.5 4.6-4.5 7.8v34c0 3.2 1.7 6.2 4.5 7.8l29.4 17c2.8 1.6 6.2 1.6 9 0l29.4-17c2.8-1.6 4.5-4.6 4.5-7.8V33c0-3.2-1.7-6.2-4.5-7.8l-29.4-17c-2.8-1.6-6.2-1.6-9 0z" style="fill:rgb(51, 51, 51);animation-play-state:paused" ></path>
<g style="animation-play-state:paused" ><path fill="#abbd81" d="M47.3 68.4L73.7 42c1.8-1.8 1.8-4.6 0-6.4-1.8-1.8-4.6-1.8-6.4 0L44.1 58.8 32.7 47.4c-1.8-1.8-4.6-1.8-6.4 0-1.8 1.8-1.8 4.6 0 6.4l14.6 14.6c.9.9 2 1.3 3.2 1.3s2.3-.5 3.2-1.3z" style="fill:rgb(171, 189, 129);animation-play-state:paused" ></path></g>
<metadata xmlns:d="https://loading.io/stock/" style="animation-play-state:paused" ><d:name style="animation-play-state:paused" >ok</d:name>
<d:tags style="animation-play-state:paused" >ok,confirm,ready,positive,check,right,correct,affirmative,success,hexagon,form</d:tags>
<d:license style="animation-play-state:paused" >by</d:license>
<d:slug style="animation-play-state:paused" >d67d6z</d:slug></metadata></g><!-- generated by https://loading.io/ --></svg>