<?xml version="1.0" encoding="utf-8"?><svg xml:space="preserve" viewBox="0 0 100 100" y="0" x="0" xmlns="http://www.w3.org/2000/svg" id="Layer_1" version="1.1" width="47px" height="47px" xmlns:xlink="http://www.w3.org/1999/xlink" style="width:100%;height:100%;background-size:initial;background-repeat-y:initial;background-repeat-x:initial;background-position-y:initial;background-position-x:initial;background-origin:initial;background-color:initial;background-clip:initial;background-attachment:initial;animation-play-state:paused" ><g class="ldl-scale" style="transform-origin:50% 50%;transform:rotate(0deg) scale(0.8, 0.8);animation-play-state:paused" ><path fill="#e15c64" d="M50.2 10h-.4c-2.8 0-5 2.2-5 5v.4c0 2.8 2.2 5 5 5h.4c2.8 0 5-2.2 5-5V15c0-2.8-2.2-5-5-5z" style="fill:rgb(225, 92, 100);animation-play-state:paused" ></path>
<path fill="#e15c64" d="M50.9 71.3h-.7c-5 0-9 4-9 9v.7c0 5 4 9 9 9h.7c5 0 9-4 9-9v-.7c0-5-4.1-9-9-9z" style="fill:rgb(225, 92, 100);animation-play-state:paused" ></path>
<path fill="#f7b26a" d="M74.4 49.5v-9.8c0-13.2-10.3-24.5-23.5-25-13.9-.5-25.3 10.6-25.3 24.4v10.4c0 7.7-6.3 14-14 14v5.6c0 5.5 4.5 10 10 10h56.9c5.5 0 10-4.5 10-10v-5.6c-7.8 0-14.1-6.3-14.1-14z" style="fill:rgb(247, 178, 106);animation-play-state:paused" ></path>
<path fill="#f47e5f" d="M11.6 69.1c0 5.5 4.5 10 10 10h56.9c5.5 0 10-4.5 10-10v-2.5H11.6v2.5z" style="fill:rgb(244, 126, 95);animation-play-state:paused" ></path>
<path fill="#353035" opacity=".2" d="M49.8 10c-2.8 0-5 2.2-5 5v.2c-11.1 2.5-19.2 12.7-19.2 24.4v9.8c0 7.7-6.3 14-14 14V69c0 5.5 4.5 10 10 10h19.7c-.1.4-.1.8-.1 1.2v.8c0 4.9 3.9 8.9 8.8 9V10h-.2z" style="fill:rgb(53, 48, 53);animation-play-state:paused" ></path>
<metadata xmlns:d="https://loading.io/stock/" style="animation-play-state:paused" ><d:name style="animation-play-state:paused" >bell</d:name>
<d:tags style="animation-play-state:paused" >jingle,chime,ding,alarm,notification,notify,notice,inform,news,alert,bell,web application</d:tags>
<d:license style="animation-play-state:paused" >pro</d:license>
<d:slug style="animation-play-state:paused" >3j8u1l</d:slug></metadata></g><!-- generated by https://loading.io/ --></svg>