<?xml version="1.0" encoding="iso-8859-1"?>
<!-- Generator: Adobe Illustrator 19.0.0, SVG Export Plug-In . SVG Version: 6.00 Build 0)  -->
<svg version="1.1" id="Layer_1" xmlns="http://www.w3.org/2000/svg" xmlns:xlink="http://www.w3.org/1999/xlink" x="0px" y="0px"
	 viewBox="0 0 292.906 292.906" style="enable-background:new 0 0 292.906 292.906;" xml:space="preserve">
<g>
	<g>
		<g>
			<path d="M213.073,0H79.829c-5.64,0-10.211,4.572-10.211,10.217V70.87c0,0.376,0.071,0.736,0.109,1.106
				c-0.169,2.534,0.523,5.084,2.18,7.122l25.627,31.479v172.112c0,5.64,4.572,10.217,10.211,10.217h74.079
				c5.64,0,10.211-4.572,10.211-10.217V131.206c0-5.64-4.572-10.211-10.211-10.211c-5.64,0-10.217,4.572-10.217,10.211v102.076
				h-53.651v-126.34c0-2.349-0.812-4.626-2.294-6.452l-14.353-17.633h88.039l-4.833,5.514c-3.515,4.01-3.313,10.064,0.463,13.83
				l0.114,0.114c4.152,4.141,10.942,3.912,14.805-0.496l19.665-22.439c0.507-0.578,0.866-1.231,1.226-1.885
				c1.537-1.787,2.501-4.087,2.501-6.626V10.217C223.284,4.572,218.712,0,213.073,0z M171.606,253.705v18.766h-53.651
				c0,0,0-18.766,0-18.766H171.606z M202.856,60.653L202.856,60.653H90.04V20.428h112.816V60.653z"/>
			<path d="M136.068,143.156v27.092c0,5.64,4.572,10.217,10.211,10.217c5.64,0,10.211-4.572,10.211-10.217v-27.092
				c0-5.64-4.572-10.211-10.211-10.211C140.639,132.944,136.068,137.516,136.068,143.156z"/>
		</g>
	</g>
</g>
<g>
</g>
<g>
</g>
<g>
</g>
<g>
</g>
<g>
</g>
<g>
</g>
<g>
</g>
<g>
</g>
<g>
</g>
<g>
</g>
<g>
</g>
<g>
</g>
<g>
</g>
<g>
</g>
<g>
</g>
</svg>
