<?xml version="1.0" encoding="utf-8"?><svg xml:space="preserve" viewBox="0 0 100 100" y="0" x="0" xmlns="http://www.w3.org/2000/svg" id="圖層_1" version="1.1" width="47px" height="47px" xmlns:xlink="http://www.w3.org/1999/xlink" style="width:100%;height:100%;background-size:initial;background-repeat-y:initial;background-repeat-x:initial;background-position-y:initial;background-position-x:initial;background-origin:initial;background-image:initial;background-color:rgb(255, 255, 255);background-clip:initial;background-attachment:initial;animation-play-state:paused" ><g class="ldl-scale" style="transform-origin:50% 50%;transform:rotate(0deg) scale(0.8, 0.8);animation-play-state:paused" ><path d="M8.5 21.249h83V78.75h-83z" stroke-miterlimit="10" stroke-linejoin="round" stroke-linecap="round" stroke-width="4.15" stroke="#333" fill="#fff" style="stroke:rgb(51, 51, 51);fill:rgb(255, 255, 255);animation-play-state:paused" ></path>
<path stroke-miterlimit="10" stroke-width="4" stroke="#333" fill="#fff" d="M67.023 63.994l7.825-8.411a5.91 5.91 0 0 1 8.628-.027l7.949 8.438v14.681H53.45l13.573-14.681z" style="stroke:rgb(51, 51, 51);fill:rgb(255, 255, 255);animation-play-state:paused" ></path>
<path stroke-miterlimit="10" stroke-width="4" stroke="#333" fill="#fff" d="M23.385 78.676L46.23 45.593c1.801-2.608 5.643-2.646 7.495-.073l23.867 33.156H23.385z" style="stroke:rgb(51, 51, 51);fill:rgb(255, 255, 255);animation-play-state:paused" ></path>
<path fill="#333" clip-rule="evenodd" fill-rule="evenodd" d="M82.55 40.458a3.461 3.461 0 0 0-2.381-3.287 6.576 6.576 0 0 0-12.907-2.473c-.057-.002-.114-.009-.172-.009a4.615 4.615 0 1 0 0 9.23h12.46v-.034a3.46 3.46 0 0 0 3-3.427z" style="fill:rgb(51, 51, 51);animation-play-state:paused" ></path>
<circle fill="#333" clip-rule="evenodd" fill-rule="evenodd" r="5.915" cy="38.933" cx="25.662" style="fill:rgb(51, 51, 51);animation-play-state:paused" ></circle>
<path d="M25.662 27.867v3.265" stroke-miterlimit="10" stroke-linecap="round" stroke-width="1.27" stroke="#333" fill="none" style="stroke:rgb(51, 51, 51);animation-play-state:paused" ></path>
<path d="M20.129 29.349l1.632 2.828" stroke-miterlimit="10" stroke-linecap="round" stroke-width="1.27" stroke="#333" fill="none" style="stroke:rgb(51, 51, 51);animation-play-state:paused" ></path>
<path d="M16.078 33.4l2.827 1.633" stroke-miterlimit="10" stroke-linecap="round" stroke-width="1.27" stroke="#333" fill="none" style="stroke:rgb(51, 51, 51);animation-play-state:paused" ></path>
<path d="M14.595 38.933h3.265" stroke-miterlimit="10" stroke-linecap="round" stroke-width="1.27" stroke="#333" fill="none" style="stroke:rgb(51, 51, 51);animation-play-state:paused" ></path>
<path d="M16.078 44.467l2.827-1.633" stroke-miterlimit="10" stroke-linecap="round" stroke-width="1.27" stroke="#333" fill="none" style="stroke:rgb(51, 51, 51);animation-play-state:paused" ></path>
<path d="M20.129 48.517l1.632-2.827" stroke-miterlimit="10" stroke-linecap="round" stroke-width="1.27" stroke="#333" fill="none" style="stroke:rgb(51, 51, 51);animation-play-state:paused" ></path>
<path d="M25.662 50v-3.265" stroke-miterlimit="10" stroke-linecap="round" stroke-width="1.27" stroke="#333" fill="none" style="stroke:rgb(51, 51, 51);animation-play-state:paused" ></path>
<path d="M31.195 48.517l-1.632-2.827" stroke-miterlimit="10" stroke-linecap="round" stroke-width="1.27" stroke="#333" fill="none" style="stroke:rgb(51, 51, 51);animation-play-state:paused" ></path>
<path d="M35.246 44.467l-2.828-1.633" stroke-miterlimit="10" stroke-linecap="round" stroke-width="1.27" stroke="#333" fill="none" style="stroke:rgb(51, 51, 51);animation-play-state:paused" ></path>
<path d="M36.729 38.933h-3.266" stroke-miterlimit="10" stroke-linecap="round" stroke-width="1.27" stroke="#333" fill="none" style="stroke:rgb(51, 51, 51);animation-play-state:paused" ></path>
<path d="M35.246 33.4l-2.828 1.633" stroke-miterlimit="10" stroke-linecap="round" stroke-width="1.27" stroke="#333" fill="none" style="stroke:rgb(51, 51, 51);animation-play-state:paused" ></path>
<path d="M31.195 29.349l-1.632 2.828" stroke-miterlimit="10" stroke-linecap="round" stroke-width="1.27" stroke="#333" fill="none" style="stroke:rgb(51, 51, 51);animation-play-state:paused" ></path>
<metadata xmlns:d="https://loading.io/stock/" style="animation-play-state:paused" ><d:name style="animation-play-state:paused" >photo</d:name>


<d:tags style="animation-play-state:paused" >scene,landscape,sky,mountain,sun,cloud,film,picture,photo,camera</d:tags>


<d:license style="animation-play-state:paused" >by</d:license>


<d:slug style="animation-play-state:paused" >niu2bb</d:slug></metadata></g><!-- generated by https://loading.io/ --></svg>