<?xml version="1.0" encoding="utf-8"?><svg xml:space="preserve" viewBox="0 0 100 100" y="0" x="0" xmlns="http://www.w3.org/2000/svg" id="Layer_1" version="1.1" width="47px" height="47px" xmlns:xlink="http://www.w3.org/1999/xlink" style="width:100%;height:100%;background-size:initial;background-repeat-y:initial;background-repeat-x:initial;background-position-y:initial;background-position-x:initial;background-origin:initial;background-color:initial;background-clip:initial;background-attachment:initial;animation-play-state:paused" ><g class="ldl-scale" style="transform-origin:50% 50%;transform:rotate(0deg) scale(0.8, 0.8);animation-play-state:paused" ><path d="M56.681 50.027v-36.86H43.319v36.86H17.881L50 85.059l32.119-35.032H62.348z" fill="#999998" style="fill:rgb(202, 90, 90);animation-play-state:paused" ></path>
<path fill="#323232" d="M90.528 44.361h-28.18V10.254A2.754 2.754 0 0 0 59.594 7.5H40.406a2.754 2.754 0 0 0-2.754 2.754v34.107H9.472c-1.713 0-2.608 2.036-1.451 3.298l40.528 44.203c.39.425.921.638 1.451.638s1.061-.213 1.451-.638l40.528-44.203c1.157-1.262.262-3.298-1.451-3.298zM50 85.059L17.881 50.027H43.319v-36.86h13.363v36.861H82.12L50 85.059z" style="fill:rgb(50, 50, 50);animation-play-state:paused" ></path>
<metadata xmlns:d="https://loading.io/stock/" style="animation-play-state:paused" ><d:name style="animation-play-state:paused" >down</d:name>


<d:tags style="animation-play-state:paused" >south,download,bottom,direction,way,down,arrow</d:tags>


<d:license style="animation-play-state:paused" >by</d:license>


<d:slug style="animation-play-state:paused" >k8o95p</d:slug></metadata></g><!-- generated by https://loading.io/ --></svg>