<?xml version="1.0" encoding="utf-8"?><svg xml:space="preserve" viewBox="0 0 100 100" y="0" x="0" xmlns="http://www.w3.org/2000/svg" id="Layer_1" version="1.1" width="47px" height="47px" xmlns:xlink="http://www.w3.org/1999/xlink" style="width:100%;height:100%;background-size:initial;background-repeat-y:initial;background-repeat-x:initial;background-position-y:initial;background-position-x:initial;background-origin:initial;background-color:initial;background-clip:initial;background-attachment:initial;animation-play-state:paused" ><g class="ldl-scale" style="transform-origin:50% 50%;transform:rotate(0deg) scale(0.8, 0.8);animation-play-state:paused" ><path d="M43.319 49.972v36.861h13.362V49.972H82.119L50 14.941 17.881 49.972h19.771z" fill="#999998" style="fill:rgb(63, 128, 203);animation-play-state:paused" ></path>
<path fill="#323232" d="M9.472 55.639h28.18v34.107a2.754 2.754 0 0 0 2.754 2.754h19.188a2.754 2.754 0 0 0 2.754-2.754V55.639h28.18c1.713 0 2.608-2.036 1.451-3.298L51.451 8.138A1.963 1.963 0 0 0 50 7.5c-.53 0-1.061.213-1.451.638L8.021 52.341c-1.157 1.262-.262 3.298 1.451 3.298zM50 14.941l32.119 35.032H56.681v36.861H43.319V49.972H17.881L50 14.941z" style="fill:rgb(50, 50, 50);animation-play-state:paused" ></path>
<metadata xmlns:d="https://loading.io/stock/" style="animation-play-state:paused" ><d:name style="animation-play-state:paused" >up</d:name>


<d:tags style="animation-play-state:paused" >north,upload,top,direction,way,up,arrow</d:tags>


<d:license style="animation-play-state:paused" >by</d:license>


<d:slug style="animation-play-state:paused" >pskaok</d:slug></metadata></g><!-- generated by https://loading.io/ --></svg>